<svg xmlns="http://www.w3.org/2000/svg" xmlns:xlink="http://www.w3.org/1999/xlink" width="145" height="38.832" viewBox="0 0 145 38.832"><defs><clipPath id="a"><rect width="141.614" height="31.6" fill="none"/></clipPath><clipPath id="b"><rect width="145" height="38.832" fill="#c1d82f"/></clipPath></defs><g clip-path="url(#a)"><path d="M666.334,409.144C679.45,405.015,681.846,396.1,687.467,396c2.03-.036,3.728.734,6.34,1.623,5.7-2.324,13.995,7.783,19.7,8.95-3.192.288-9.958-4.567-14.407-6.543-4.348-1.933-6.189.772-6.841,1.734-.244.356-1.354,1.792-2.523,1.368-1.569-.571-1.485-3.9-1.7-3.984s-3.119,2.964-3.8,3.584c-.305.273-.86.736-1.233.665-.816-.156-1.018-1.336-1.71-1.238-.171.006-7.76,8.383-14.951,6.983" transform="translate(-574.597 -396)" fill="#c1d82f"/></g><g clip-path="url(#b)"><path d="M735.381,434.488c-.607-1.747-3.175-2.85-9.366-2.855a60.178,60.178,0,0,0-7.278.387,99.786,99.786,0,0,0-21.873,5.6l1.761-.424a132.253,132.253,0,0,1,21.9-3.984c1.225-.114,2.335-.156,3.334-.156,4.944,0,7.048,1.134,7.146,1.169a4.089,4.089,0,0,0,1.574,1.583,3.634,3.634,0,0,0,1.772.546,1.06,1.06,0,0,0,1.189-1.061,2.451,2.451,0,0,0-.154-.806" transform="translate(-591.859 -417.707)" fill="#0078ae"/><path d="M437.066,410.735l-3.089,9.007-3.088-9.007h-2.7l4.306,11.786h2.969l4.323-11.786Z" transform="translate(-428.187 -404.976)" fill="#0078ae"/><path d="M517.532,422.885a1.646,1.646,0,0,1-1.69,1.092,1.772,1.772,0,0,1-1.5-.7,3.729,3.729,0,0,1,0-3.9,1.773,1.773,0,0,1,1.5-.7,1.629,1.629,0,0,1,1.69,1.075l.027.068h2.733l-.035-.135a4.053,4.053,0,0,0-1.55-2.365,4.8,4.8,0,0,0-2.865-.832,4.479,4.479,0,0,0-3.343,1.326,5.411,5.411,0,0,0,0,7.013,4.48,4.48,0,0,0,3.343,1.325,4.646,4.646,0,0,0,2.841-.866,4.255,4.255,0,0,0,1.573-2.345l.038-.138h-2.735Z" transform="translate(-478.762 -408.489)" fill="#0078ae"/><path d="M594.583,423.781l-2.292-6.939h-2.72l3.462,9.4h3.084l3.462-9.4h-2.72Z" transform="translate(-526.499 -408.697)" fill="#0078ae"/><path d="M619.948,416.5a4.534,4.534,0,0,0-3.359,1.316,4.783,4.783,0,0,0-1.3,3.5,4.857,4.857,0,0,0,1.29,3.514,4.464,4.464,0,0,0,3.343,1.335,4.719,4.719,0,0,0,2.831-.849,4.159,4.159,0,0,0,1.582-2.195l.043-.14h-2.728l-.031.054a1.815,1.815,0,0,1-1.7.941,1.968,1.968,0,0,1-1.4-.517,2.049,2.049,0,0,1-.616-1.255h6.667l.014-.091a5.763,5.763,0,0,0,.068-.913,4.562,4.562,0,0,0-1.325-3.417,4.684,4.684,0,0,0-3.382-1.282m2.062,3.977h-4.1a2.182,2.182,0,0,1,.652-1.271,1.975,1.975,0,0,1,1.393-.517,2.1,2.1,0,0,1,1.428.52,1.848,1.848,0,0,1,.626,1.269" transform="translate(-542.166 -408.491)" fill="#0078ae"/><path d="M541.9,416.5a4.829,4.829,0,0,0-3.447,1.323,4.615,4.615,0,0,0-1.393,3.492,4.7,4.7,0,0,0,1.376,3.508,4.748,4.748,0,0,0,3.44,1.341,4.834,4.834,0,0,0,3.464-1.34,5.083,5.083,0,0,0,.008-7A4.827,4.827,0,0,0,541.9,416.5m1.58,6.786a2.174,2.174,0,0,1-1.6.689,2.107,2.107,0,0,1-1.579-.679,3.291,3.291,0,0,1,0-3.928,2.116,2.116,0,0,1,1.587-.679,2.171,2.171,0,0,1,1.6.68,3.2,3.2,0,0,1-.008,3.917" transform="translate(-494.509 -408.491)" fill="#0078ae"/><path d="M490,416.5a4.266,4.266,0,0,0-2.838.9l-.764-.764h-1.7v9.4h2.554v-5.18a2.18,2.18,0,0,1,.525-1.574,1.9,1.9,0,0,1,1.422-.539,1.87,1.87,0,0,1,1.414.539,2.2,2.2,0,0,1,.517,1.574v5.18h2.537v-5.512a4.1,4.1,0,0,0-1.025-2.951A3.524,3.524,0,0,0,490,416.5" transform="translate(-462.613 -408.49)" fill="#0078ae"/><path d="M571.049,422.022a2.179,2.179,0,0,1-.525,1.574,1.9,1.9,0,0,1-1.422.539,1.87,1.87,0,0,1-1.414-.539,2.2,2.2,0,0,1-.517-1.574v-5.18h-2.537v5.512a4.1,4.1,0,0,0,1.025,2.95,3.522,3.522,0,0,0,2.647,1.069,4.265,4.265,0,0,0,2.838-.9l.764.764h1.7v-9.4h-2.554Z" transform="translate(-511.308 -408.697)" fill="#0078ae"/><path d="M648.128,416.5a4.265,4.265,0,0,0-2.838.9l-.763-.764h-1.7v9.4h2.553v-4.716a2.385,2.385,0,0,1,.5-1.721,2.064,2.064,0,0,1,1.5-.491h.854v-2.6Z" transform="translate(-558.944 -408.49)" fill="#0078ae"/><path d="M465.269,419.576a2.662,2.662,0,0,0-.865-1.9,5.128,5.128,0,0,0-3.426-1.22l-.049,0-.058,0a4.8,4.8,0,0,0-2.865.832,4.056,4.056,0,0,0-1.55,2.365l-.034.135h2.637l.028-.066a1.757,1.757,0,0,1,1.892-1.077c.8,0,1.679.358,1.75.966a.389.389,0,0,1,.007.069v.771h-1.753c-.107,0-.211,0-.314,0-2.578,0-4.628.635-4.628,2.71,0,1.991,1.242,2.973,3.692,2.973a4.618,4.618,0,0,0,3.114-.864l.731.73h1.695v-6.432Zm-2.55,3.5a2.775,2.775,0,0,1-2.577.974c-.949,0-1.524-.149-1.524-.988,0-.677,1.155-.878,2.365-.878h1.736Z" transform="translate(-445.155 -408.464)" fill="#0078ae"/><path d="M435.649,453.277a3.221,3.221,0,0,1,3.146,1.806l.03.059h3.645l-.052-.145a6.586,6.586,0,0,0-2.606-3.357,7.46,7.46,0,0,0-4.163-1.193,7.211,7.211,0,0,0-5.213,2.078,7.586,7.586,0,0,0-.011,10.531,7.2,7.2,0,0,0,5.224,2.078,7.5,7.5,0,0,0,4.163-1.183,6.534,6.534,0,0,0,2.606-3.347l.052-.145h-3.644l-.03.058a3.284,3.284,0,0,1-3.146,1.806,4.041,4.041,0,0,1-3.053-1.233,5.191,5.191,0,0,1,0-6.579,4.041,4.041,0,0,1,3.053-1.233" transform="translate(-428.259 -429.167)" fill="#c1d82f"/><path d="M472.061,458.017a5.882,5.882,0,0,0-4.2,1.611,5.621,5.621,0,0,0-1.7,4.253,5.723,5.723,0,0,0,1.674,4.272,5.783,5.783,0,0,0,4.19,1.632,5.888,5.888,0,0,0,4.219-1.631,6.193,6.193,0,0,0,.01-8.526,5.88,5.88,0,0,0-4.2-1.611m2.78,5.874a3.33,3.33,0,0,1-.831,2.417,2.681,2.681,0,0,1-1.979.848,2.6,2.6,0,0,1-1.948-.837,4.048,4.048,0,0,1,0-4.836,2.612,2.612,0,0,1,1.958-.838,2.677,2.677,0,0,1,1.979.839,3.32,3.32,0,0,1,.821,2.407" transform="translate(-451.324 -433.779)" fill="#c1d82f"/><path d="M539.484,463.321c-.63-.183-1.271-.338-1.9-.459a6.459,6.459,0,0,1-1.595-.5.886.886,0,0,1-.608-.794.933.933,0,0,1,.4-.8,2.014,2.014,0,0,1,1.193-.3c1.024,0,1.559.431,1.636,1.319l.008.1h3.131l-.005-.113a3.571,3.571,0,0,0-1.358-2.744,6.056,6.056,0,0,0-6.7.01,3.151,3.151,0,0,0-1.276,2.537,2.533,2.533,0,0,0,.7,1.849,3.683,3.683,0,0,0,1.659.97c.628.176,1.268.326,1.9.448a6.208,6.208,0,0,1,1.593.507.91.91,0,0,1,.609.816.991.991,0,0,1-.442.845,2.026,2.026,0,0,1-1.213.333c-1.04,0-1.595-.433-1.7-1.323l-.011-.1h-3.13l.008.116a3.594,3.594,0,0,0,1.442,2.785,6.249,6.249,0,0,0,6.683-.011,3.055,3.055,0,0,0,1.332-2.559,2.687,2.687,0,0,0-.7-1.929,3.684,3.684,0,0,0-1.659-1" transform="translate(-491.657 -433.779)" fill="#c1d82f"/><rect width="3.074" height="14.362" transform="translate(73.167 21.481)" fill="#c1d82f"/><path d="M564.329,462.513a.9.9,0,0,1-.227-.7V456.43h2.513v-2.547H564.1v-2.918h-3.074v2.918h-1.2v2.547h1.2v5.384a3.37,3.37,0,0,0,.97,2.7,4.109,4.109,0,0,0,2.725.816h1.912v-2.608h-1.466a1.293,1.293,0,0,1-.84-.206" transform="translate(-508.382 -429.483)" fill="#c1d82f"/><path d="M590.441,459.45a6.245,6.245,0,0,0-4.172-1.485l-.055,0-.076,0a5.842,5.842,0,0,0-3.489,1.013,4.936,4.936,0,0,0-1.886,2.878l-.035.135h3.292l.028-.066a2.025,2.025,0,0,1,2.221-1.332c.994,0,2.075.446,2.163,1.2a.507.507,0,0,1,.009.09v.966h-3.795c-1.34,0-4.457.318-4.457,3.261,0,2.418,1.51,3.643,4.489,3.643a5.773,5.773,0,0,0,3.874-1.066l.9.9h2.038v-7.816h0a3.231,3.231,0,0,0-1.051-2.325m-2.02,5.46v1.123c-.643,1.063-2,1.207-3.242,1.207-.861,0-1.887-.219-1.887-1.265,0-.657.335-1.065,2-1.065Z" transform="translate(-520.784 -433.748)" fill="#c1d82f"/><path d="M509.831,461.758a3.239,3.239,0,0,0-1.052-2.309,6.244,6.244,0,0,0-4.172-1.485l-.06,0-.071,0a5.84,5.84,0,0,0-3.488,1.013,4.936,4.936,0,0,0-1.887,2.88l-.042.165h3.211l.034-.081a2.139,2.139,0,0,1,2.3-1.312c.98,0,2.044.437,2.131,1.176a.455.455,0,0,1,.009.085v.938h-2.134c-.13,0-.257,0-.383,0h0c-3.138,0-5.635.773-5.635,3.3,0,2.424,1.513,3.62,4.5,3.62a5.622,5.622,0,0,0,3.792-1.052l.89.89h2.064v-7.832Zm-3.105,4.257c-.635,1.043-1.908,1.185-3.138,1.185-1.156,0-1.856-.182-1.856-1.2,0-.824,1.407-1.069,2.88-1.069h2.114Z" transform="translate(-471.078 -433.747)" fill="#c1d82f"/><path d="M639.666,456.862H633.8v-5.9h-3.074v14.362H633.8v-6.059h5.863v6.059h3.075V450.965h-3.075Z" transform="translate(-551.571 -429.483)" fill="#0078ae"/><path d="M671.612,458.017a5.518,5.518,0,0,0-4.09,1.6,5.824,5.824,0,0,0-1.582,4.261,5.915,5.915,0,0,0,1.571,4.28,5.432,5.432,0,0,0,4.07,1.624,5.743,5.743,0,0,0,3.449-1.034,5.059,5.059,0,0,0,1.924-2.67l.043-.14h-3.289l-.031.053a2.243,2.243,0,0,1-2.1,1.162,2.429,2.429,0,0,1-1.729-.639,2.533,2.533,0,0,1-.764-1.576h8.158l.014-.091a7.044,7.044,0,0,0,.083-1.112,5.551,5.551,0,0,0-1.614-4.161,5.7,5.7,0,0,0-4.118-1.561m-2.52,4.864a2.7,2.7,0,0,1,.81-1.6,2.44,2.44,0,0,1,1.72-.64,2.588,2.588,0,0,1,1.762.642,2.324,2.324,0,0,1,.775,1.594Z" transform="translate(-573.021 -433.779)" fill="#0078ae"/><rect width="3.074" height="14.362" transform="translate(119.191 21.481)" fill="#0078ae"/><path d="M750.2,462.513a.9.9,0,0,1-.227-.7V456.43h2.513v-2.547H749.97v-2.918H746.9v2.918h-1.2v2.547h1.2v5.384a3.371,3.371,0,0,0,.97,2.7,4.112,4.112,0,0,0,2.725.816H752.5v-2.608h-1.467a1.292,1.292,0,0,1-.84-.206" transform="translate(-621.609 -429.483)" fill="#0078ae"/><path d="M776.962,455.02a4.284,4.284,0,0,0-3.22-1.3,3.879,3.879,0,0,0-3.378,1.584v-4.34h-3.073v14.362h3.073v-6.309a2.686,2.686,0,0,1,.649-1.941,2.345,2.345,0,0,1,1.756-.666,2.312,2.312,0,0,1,1.745.666,2.714,2.714,0,0,1,.639,1.942v6.309h3.053v-6.715a4.992,4.992,0,0,0-1.246-3.59" transform="translate(-634.762 -429.483)" fill="#0078ae"/><path d="M709.354,461.758a3.237,3.237,0,0,0-1.053-2.309,6.242,6.242,0,0,0-4.172-1.485l-.06,0-.07,0a5.839,5.839,0,0,0-3.488,1.013,4.934,4.934,0,0,0-1.886,2.88l-.043.165h3.211l.034-.081a2.14,2.14,0,0,1,2.3-1.312c.98,0,2.044.437,2.131,1.176a.488.488,0,0,1,.008.085v.938h-2.133q-.2,0-.383,0h0c-3.139,0-5.635.773-5.635,3.3,0,2.424,1.513,3.62,4.5,3.62A5.623,5.623,0,0,0,706.4,468.7l.89.89h2.063v-7.832Zm-3.105,4.257c-.635,1.043-1.909,1.185-3.139,1.185-1.155,0-1.856-.182-1.856-1.2,0-.824,1.406-1.069,2.881-1.069h2.114Z" transform="translate(-592.623 -433.747)" fill="#0078ae"/></g></svg>